<svg width="54" height="42" viewBox="0 0 54 42" fill="none" xmlns="http://www.w3.org/2000/svg">
<path d="M51.8651 0V3.08084C47.5116 4.67365 44.1 7.18862 41.6302 10.6257C39.1605 14.021 37.9256 17.5629 37.9256 21.2515C37.9256 22.0479 38.0512 22.6347 38.3023 23.012C38.4698 23.2635 38.6581 23.3892 38.8674 23.3892C39.0767 23.3892 39.3907 23.2425 39.8093 22.9491C41.1488 21.985 42.8442 21.503 44.8953 21.503C47.2814 21.503 49.3953 22.488 51.2372 24.4581C53.0791 26.3862 54 28.6916 54 31.3743C54 34.1826 52.9326 36.6557 50.7977 38.7934C48.7046 40.9311 46.1512 42 43.1372 42C39.6209 42 36.586 40.5539 34.0326 37.6617C31.4791 34.7695 30.2023 30.8922 30.2023 26.0299C30.2023 20.3713 31.9395 15.2994 35.414 10.8144C38.8884 6.32934 44.3721 2.72455 51.8651 0ZM21.6628 0V3.08084C17.3093 4.67365 13.8977 7.18862 11.4279 10.6257C8.95814 14.021 7.72326 17.5629 7.72326 21.2515C7.72326 22.0479 7.84884 22.6347 8.1 23.012C8.26744 23.2635 8.45581 23.3892 8.66512 23.3892C8.87442 23.3892 9.18837 23.2425 9.60698 22.9491C10.9465 21.985 12.6419 21.503 14.693 21.503C17.0791 21.503 19.193 22.488 21.0349 24.4581C22.8767 26.3862 23.7977 28.6916 23.7977 31.3743C23.7977 34.1826 22.7302 36.6557 20.5953 38.7934C18.5023 40.9311 15.9488 42 12.9349 42C9.4186 42 6.38372 40.5539 3.83023 37.6617C1.27674 34.7695 0 30.8922 0 26.0299C0 20.3713 1.73721 15.2994 5.21163 10.8144C8.68605 6.32934 14.1698 2.72455 21.6628 0Z" fill="black"/>
</svg>
