<svg xmlns="http://www.w3.org/2000/svg" width="98.586" height="84.711" viewBox="0 0 98.586 84.711">
  <g id="header-dots" transform="translate(-16.281 0)">
    <circle id="Ellipse_3" data-name="Ellipse 3" cx="1.652" cy="1.652" r="1.652" transform="translate(114.867 84.711) rotate(180)" fill="#464646"/>
    <circle id="Ellipse_4" data-name="Ellipse 4" cx="1.652" cy="1.652" r="1.652" transform="translate(98.93 84.711) rotate(180)" fill="#464646"/>
    <circle id="Ellipse_5" data-name="Ellipse 5" cx="1.652" cy="1.652" r="1.652" transform="translate(82.992 84.711) rotate(180)" fill="#464646"/>
    <circle id="Ellipse_6" data-name="Ellipse 6" cx="1.652" cy="1.652" r="1.652" transform="translate(67.054 84.711) rotate(180)" fill="#464646"/>
    <circle id="Ellipse_7" data-name="Ellipse 7" cx="1.652" cy="1.652" r="1.652" transform="translate(51.117 84.711) rotate(180)" fill="#464646"/>
    <circle id="Ellipse_8" data-name="Ellipse 8" cx="1.652" cy="1.652" r="1.652" transform="translate(35.179 84.711) rotate(180)" fill="#464646"/>
    <circle id="Ellipse_9" data-name="Ellipse 9" cx="1.652" cy="1.652" r="1.652" transform="translate(19.585 84.711) rotate(180)" fill="#464646"/>
    <circle id="Ellipse_13" data-name="Ellipse 13" cx="1.652" cy="1.652" r="1.652" transform="translate(114.867 68.43) rotate(180)" fill="#464646"/>
    <circle id="Ellipse_14" data-name="Ellipse 14" cx="1.652" cy="1.652" r="1.652" transform="translate(98.93 68.43) rotate(180)" fill="#464646"/>
    <circle id="Ellipse_15" data-name="Ellipse 15" cx="1.652" cy="1.652" r="1.652" transform="translate(82.992 68.43) rotate(180)" fill="#464646"/>
    <circle id="Ellipse_16" data-name="Ellipse 16" cx="1.652" cy="1.652" r="1.652" transform="translate(67.054 68.43) rotate(180)" fill="#464646"/>
    <circle id="Ellipse_17" data-name="Ellipse 17" cx="1.652" cy="1.652" r="1.652" transform="translate(51.117 68.43) rotate(180)" fill="#464646"/>
    <circle id="Ellipse_18" data-name="Ellipse 18" cx="1.652" cy="1.652" r="1.652" transform="translate(35.179 68.43) rotate(180)" fill="#464646"/>
    <circle id="Ellipse_19" data-name="Ellipse 19" cx="1.652" cy="1.652" r="1.652" transform="translate(19.585 68.43) rotate(180)" fill="#464646"/>
    <circle id="Ellipse_23" data-name="Ellipse 23" cx="1.652" cy="1.652" r="1.652" transform="translate(114.867 52.148) rotate(180)" fill="#464646"/>
    <circle id="Ellipse_24" data-name="Ellipse 24" cx="1.652" cy="1.652" r="1.652" transform="translate(98.93 52.148) rotate(180)" fill="#464646"/>
    <circle id="Ellipse_25" data-name="Ellipse 25" cx="1.652" cy="1.652" r="1.652" transform="translate(82.992 52.148) rotate(180)" fill="#464646"/>
    <circle id="Ellipse_26" data-name="Ellipse 26" cx="1.652" cy="1.652" r="1.652" transform="translate(67.054 52.148) rotate(180)" fill="#464646"/>
    <circle id="Ellipse_27" data-name="Ellipse 27" cx="1.652" cy="1.652" r="1.652" transform="translate(51.117 52.148) rotate(180)" fill="#464646"/>
    <circle id="Ellipse_28" data-name="Ellipse 28" cx="1.652" cy="1.652" r="1.652" transform="translate(35.179 52.148) rotate(180)" fill="#464646"/>
    <circle id="Ellipse_29" data-name="Ellipse 29" cx="1.652" cy="1.652" r="1.652" transform="translate(19.585 52.148) rotate(180)" fill="#464646"/>
    <circle id="Ellipse_33" data-name="Ellipse 33" cx="1.652" cy="1.652" r="1.652" transform="translate(114.867 35.867) rotate(180)" fill="#464646"/>
    <circle id="Ellipse_34" data-name="Ellipse 34" cx="1.652" cy="1.652" r="1.652" transform="translate(98.93 35.867) rotate(180)" fill="#464646"/>
    <circle id="Ellipse_35" data-name="Ellipse 35" cx="1.652" cy="1.652" r="1.652" transform="translate(82.992 35.867) rotate(180)" fill="#464646"/>
    <circle id="Ellipse_36" data-name="Ellipse 36" cx="1.652" cy="1.652" r="1.652" transform="translate(67.054 35.867) rotate(180)" fill="#464646"/>
    <circle id="Ellipse_37" data-name="Ellipse 37" cx="1.652" cy="1.652" r="1.652" transform="translate(51.117 35.867) rotate(180)" fill="#464646"/>
    <circle id="Ellipse_38" data-name="Ellipse 38" cx="1.652" cy="1.652" r="1.652" transform="translate(35.179 35.867) rotate(180)" fill="#464646"/>
    <circle id="Ellipse_39" data-name="Ellipse 39" cx="1.652" cy="1.652" r="1.652" transform="translate(19.585 35.867) rotate(180)" fill="#464646"/>
    <circle id="Ellipse_43" data-name="Ellipse 43" cx="1.652" cy="1.652" r="1.652" transform="translate(114.867 19.585) rotate(180)" fill="#464646"/>
    <circle id="Ellipse_44" data-name="Ellipse 44" cx="1.652" cy="1.652" r="1.652" transform="translate(98.93 19.585) rotate(180)" fill="#464646"/>
    <circle id="Ellipse_45" data-name="Ellipse 45" cx="1.652" cy="1.652" r="1.652" transform="translate(82.992 19.585) rotate(180)" fill="#464646"/>
    <circle id="Ellipse_46" data-name="Ellipse 46" cx="1.652" cy="1.652" r="1.652" transform="translate(67.054 19.585) rotate(180)" fill="#464646"/>
    <circle id="Ellipse_47" data-name="Ellipse 47" cx="1.652" cy="1.652" r="1.652" transform="translate(51.117 19.585) rotate(180)" fill="#464646"/>
    <circle id="Ellipse_48" data-name="Ellipse 48" cx="1.652" cy="1.652" r="1.652" transform="translate(35.179 19.585) rotate(180)" fill="#464646"/>
    <circle id="Ellipse_49" data-name="Ellipse 49" cx="1.652" cy="1.652" r="1.652" transform="translate(19.585 19.585) rotate(180)" fill="#464646"/>
    <circle id="Ellipse_53" data-name="Ellipse 53" cx="1.652" cy="1.652" r="1.652" transform="translate(114.867 3.304) rotate(180)" fill="#464646"/>
    <circle id="Ellipse_54" data-name="Ellipse 54" cx="1.652" cy="1.652" r="1.652" transform="translate(98.93 3.304) rotate(180)" fill="#464646"/>
    <circle id="Ellipse_55" data-name="Ellipse 55" cx="1.652" cy="1.652" r="1.652" transform="translate(82.992 3.304) rotate(180)" fill="#464646"/>
    <circle id="Ellipse_56" data-name="Ellipse 56" cx="1.652" cy="1.652" r="1.652" transform="translate(67.054 3.304) rotate(180)" fill="#464646"/>
    <circle id="Ellipse_57" data-name="Ellipse 57" cx="1.652" cy="1.652" r="1.652" transform="translate(51.117 3.304) rotate(180)" fill="#464646"/>
    <circle id="Ellipse_58" data-name="Ellipse 58" cx="1.652" cy="1.652" r="1.652" transform="translate(35.179 3.303) rotate(180)" fill="#464646"/>
    <circle id="Ellipse_59" data-name="Ellipse 59" cx="1.652" cy="1.652" r="1.652" transform="translate(19.585 3.303) rotate(180)" fill="#464646"/>
  </g>
</svg>
