<svg width="22" height="22" viewBox="0 0 22 22" fill="none" xmlns="http://www.w3.org/2000/svg">
<path d="M21.2923 15.84C21.2542 15.807 16.8623 12.6544 15.6684 12.8707C15.0957 12.9727 14.7686 13.3628 14.113 14.1431C14.0074 14.2692 13.7537 14.5713 13.5564 14.7862C13.1416 14.6509 12.737 14.4862 12.3457 14.2934C10.3257 13.31 8.69366 11.678 7.71027 9.658C7.5173 9.26671 7.35261 8.86209 7.21747 8.44727C7.43307 8.24927 7.7352 7.99553 7.86427 7.887C8.6416 7.23433 9.03247 6.90727 9.13367 6.3338C9.3412 5.1458 6.19667 0.7502 6.16367 0.7106C6.02092 0.506921 5.83469 0.337509 5.61846 0.214615C5.40222 0.0917205 5.16137 0.0184153 4.91333 0C3.6388 0 0 4.72047 0 5.5154C0 5.5616 0.0667334 10.2579 5.85787 16.1487C11.7429 21.9333 16.4384 22 16.4846 22C17.2795 22 22 18.3612 22 17.0867C21.9817 16.8394 21.9087 16.5994 21.7863 16.3838C21.664 16.1682 21.4952 15.9824 21.2923 15.84Z" fill="#242424"/>
</svg>
